HIERARCHY
ROOT Hips
{
	OFFSET 0.000000 0.000000 0.000000 
	CHANNELS 6 Xposition Yposition Zposition Yrotation Xrotation Zrotation
	JOINT Spine
	{
		OFFSET 0.000000 0.072080 0.012321 
		CHANNELS 3 Xrotation Yrotation Zrotation
		JOINT Spine1
		{
			OFFSET 0.000000 0.126984 -0.001294 
			CHANNELS 3 Xrotation Yrotation Zrotation
			JOINT Spine2
			{
				OFFSET 0.000000 0.106559 -0.010096 
				CHANNELS 3 Xrotation Yrotation Zrotation
				JOINT Neck
				{
					OFFSET 0.000000 0.108417 -0.034017 
					CHANNELS 3 Xrotation Yrotation Zrotation
					JOINT Neck1
					{
						OFFSET 0.000000 0.033906 0.007241 
						CHANNELS 3 Xrotation Yrotation Zrotation
						JOINT Head
						{
							OFFSET 0.000000 0.031458 0.006707 
							CHANNELS 3 Xrotation Yrotation Zrotation
							End Site
							{
								OFFSET 0.000000 0.179920 0.000962 
							}
						}
					}
				}
				JOINT LeftShoulder
				{
					OFFSET 0.048002 0.079586 -0.029634 
					CHANNELS 3 Zrotation Xrotation Yrotation
					JOINT LeftArm
					{
						OFFSET 0.096243 -0.008695 -0.014012 
						CHANNELS 3 Zrotation Xrotation Yrotation
						JOINT LeftForeArm
						{
							OFFSET 0.216305 0.000000 0.000000 
							CHANNELS 3 Xrotation Zrotation Yrotation
							JOINT LeftHand
							{
								OFFSET 0.217764 0.000000 0.000000 
								CHANNELS 3 Zrotation Yrotation Xrotation
								JOINT LeftHandThumb1
								{
									OFFSET 0.018582 -0.007835 0.020476 
									CHANNELS 3 Zrotation Xrotation Yrotation
									JOINT LeftHandThumb2
									{
										OFFSET 0.026269 -0.007835 0.022186 
										CHANNELS 3 Zrotation Xrotation Yrotation
										JOINT LeftHandThumb3
										{
											OFFSET 0.035170 -0.010504 0.017018 
											CHANNELS 3 Zrotation Xrotation Yrotation
											End Site
											{
												OFFSET 0.020312 -0.007813 0.007813 
											}
										}
									}
								}
								JOINT LeftHandMiddle1
								{
									OFFSET 0.081749 0.004803 0.003358 
									CHANNELS 3 Zrotation Xrotation Yrotation
									JOINT LeftHandMiddle2
									{
										OFFSET 0.045251 0.000000 0.000000 
										CHANNELS 3 Zrotation Xrotation Yrotation
										JOINT LeftHandMiddle3
										{
											OFFSET 0.029009 0.000000 0.000000 
											CHANNELS 3 Zrotation Xrotation Yrotation
											End Site
											{
												OFFSET 0.017969 0.000000 0.000000 
											}
										}
									}
								}
								JOINT LeftHandIndex1
								{
									OFFSET 0.081207 0.004803 0.021137 
									CHANNELS 3 Zrotation Xrotation Yrotation
									JOINT LeftHandIndex2
									{
										OFFSET 0.043354 0.000000 0.000000 
										CHANNELS 3 Zrotation Xrotation Yrotation
										JOINT LeftHandIndex3
										{
											OFFSET 0.026493 0.000000 0.000000 
											CHANNELS 3 Zrotation Xrotation Yrotation
											End Site
											{
												OFFSET 0.019531 0.000000 0.000000 
											}
										}
									}
								}
								JOINT LeftHandRing1
								{
									OFFSET 0.080666 0.002509 -0.014652 
									CHANNELS 3 Zrotation Xrotation Yrotation
									JOINT LeftHandRing2
									{
										OFFSET 0.042541 0.000000 0.000000 
										CHANNELS 3 Zrotation Xrotation Yrotation
										JOINT LeftHandRing3
										{
											OFFSET 0.029009 0.000000 0.000000 
											CHANNELS 3 Zrotation Xrotation Yrotation
											End Site
											{
												OFFSET 0.015625 0.000000 0.000000 
											}
										}
									}
								}
								JOINT LeftHandPinky1
								{
									OFFSET 0.078227 -0.000612 -0.030993 
									CHANNELS 3 Zrotation Xrotation Yrotation
									JOINT LeftHandPinky2
									{
										OFFSET 0.028721 0.000000 0.000000 
										CHANNELS 3 Zrotation Xrotation Yrotation
										JOINT LeftHandPinky3
										{
											OFFSET 0.021963 0.000000 0.000000 
											CHANNELS 3 Zrotation Xrotation Yrotation
											End Site
											{
												OFFSET 0.022656 0.000000 0.000000 
											}
										}
									}
								}
							}
						}
					}
				}
				JOINT RightShoulder
				{
					OFFSET -0.047970 0.079586 -0.029634 
					CHANNELS 3 Zrotation Xrotation Yrotation
					JOINT RightArm
					{
						OFFSET -0.096274 -0.008695 -0.014012 
						CHANNELS 3 Zrotation Xrotation Yrotation
						JOINT RightForeArm
						{
							OFFSET -0.216305 0.000000 0.000000 
							CHANNELS 3 Xrotation Zrotation Yrotation
							JOINT RightHand
							{
								OFFSET -0.217764 0.000000 0.000000 
								CHANNELS 3 Zrotation Yrotation Xrotation
								JOINT RightHandThumb1
								{
									OFFSET -0.019670 -0.007318 0.019638 
									CHANNELS 3 Zrotation Xrotation Yrotation
									JOINT RightHandThumb2
									{
										OFFSET -0.025498 -0.008492 0.023179 
										CHANNELS 3 Zrotation Xrotation Yrotation
										JOINT RightHandThumb3
										{
											OFFSET -0.034504 -0.010705 0.016680 
											CHANNELS 3 Zrotation Xrotation Yrotation
											End Site
											{
												OFFSET -0.020312 -0.007813 0.007813 
											}
										}
									}
								}
								JOINT RightHandIndex1
								{
									OFFSET -0.081770 0.003825 0.021187 
									CHANNELS 3 Zrotation Xrotation Yrotation
									JOINT RightHandIndex2
									{
										OFFSET -0.042006 0.000000 0.000000 
										CHANNELS 3 Zrotation Xrotation Yrotation
										JOINT RightHandIndex3
										{
											OFFSET -0.026449 0.000000 0.000000 
											CHANNELS 3 Zrotation Xrotation Yrotation
											End Site
											{
												OFFSET -0.020312 0.000000 0.000000 
											}
										}
									}
								}
								JOINT RightHandMiddle1
								{
									OFFSET -0.084059 0.003825 0.003342 
									CHANNELS 3 Zrotation Xrotation Yrotation
									JOINT RightHandMiddle2
									{
										OFFSET -0.043881 0.000000 0.000000 
										CHANNELS 3 Zrotation Xrotation Yrotation
										JOINT RightHandMiddle3
										{
											OFFSET -0.029191 0.000000 0.000000 
											CHANNELS 3 Zrotation Xrotation Yrotation
											End Site
											{
												OFFSET -0.017969 0.000000 0.000000 
											}
										}
									}
								}
								JOINT RightHandRing1
								{
									OFFSET -0.081798 0.003030 -0.015127 
									CHANNELS 3 Zrotation Xrotation Yrotation
									JOINT RightHandRing2
									{
										OFFSET -0.042198 0.000000 0.000000 
										CHANNELS 3 Zrotation Xrotation Yrotation
										JOINT RightHandRing3
										{
											OFFSET -0.026497 0.000000 0.000000 
											CHANNELS 3 Zrotation Xrotation Yrotation
											End Site
											{
												OFFSET -0.017188 0.000000 0.000000 
											}
										}
									}
								}
								JOINT RightHandPinky1
								{
									OFFSET -0.077902 -0.000930 -0.030891 
									CHANNELS 3 Zrotation Xrotation Yrotation
									JOINT RightHandPinky2
									{
										OFFSET -0.028538 0.000000 0.000000 
										CHANNELS 3 Zrotation Xrotation Yrotation
										JOINT RightHandPinky3
										{
											OFFSET -0.021734 0.000000 0.000000 
											CHANNELS 3 Zrotation Xrotation Yrotation
											End Site
											{
												OFFSET -0.022656 0.000000 0.000000 
											}
										}
									}
								}
							}
						}
					}
				}
			}
		}
	}
	JOINT LeftUpLeg
	{
		OFFSET 0.075264 -0.025573 0.000000 
		CHANNELS 3 Xrotation Yrotation Zrotation
		JOINT LeftLeg
		{
			OFFSET 0.000000 -0.326016 -0.013516 
			CHANNELS 3 Xrotation Yrotation Zrotation
			JOINT LeftFoot
			{
				OFFSET 0.000098 -0.306172 -0.006623 
				CHANNELS 3 Xrotation Yrotation Zrotation
				JOINT LeftToeBase
				{
					OFFSET -0.001432 -0.095259 0.064705 
					CHANNELS 3 Xrotation Yrotation Zrotation
					End Site
					{
						OFFSET 0.000000 0.000000 0.079438 
					}
				}
			}
		}
	}
	JOINT RightUpLeg
	{
		OFFSET -0.075264 -0.025573 0.000000 
		CHANNELS 3 Xrotation Yrotation Zrotation
		JOINT RightLeg
		{
			OFFSET 0.000000 -0.326016 -0.013516 
			CHANNELS 3 Xrotation Yrotation Zrotation
			JOINT RightFoot
			{
				OFFSET 0.000098 -0.306172 -0.006623 
				CHANNELS 3 Xrotation Yrotation Zrotation
				JOINT RightToeBase
				{
					OFFSET -0.001432 -0.095259 0.064705 
					CHANNELS 3 Xrotation Yrotation Zrotation
					End Site
					{
						OFFSET 0.000025 0.000000 0.079438 
					}
				}
			}
		}
	}
}
MOTION
Frames: 4
Frame Time: 0.033333
0.888903 0.697879 -0.046698 82.312202 6.622500 0.399200 8.211600 -4.698600 1.884400 2.873400 -1.676200 0.318200 2.888500 -1.646700 0.336500 -1.541600 -11.124800 0.475500 -0.000000 0.000000 -0.000000 -9.615600 -52.093300 10.487400 -14.819900 7.185300 -23.513000 -31.661699 22.933300 9.683700 0.000000 -0.000000 -37.986698 -5.015600 1.951400 32.101700 -12.079900 5.775200 -3.007700 9.374400 -7.558900 14.346900 2.676800 -2.239100 7.290500 -39.961102 -1.901900 -4.183700 -28.234900 -0.390200 0.651400 -15.294200 -0.018900 0.230600 -16.887199 -0.257500 -8.921300 -13.248300 -0.159700 0.748400 -8.913800 -0.018100 -0.225900 -44.258499 -2.135500 3.487500 -35.292301 0.160400 0.277900 -27.477501 0.320200 -0.028300 -58.814701 -2.805600 1.443200 -53.918499 -0.197500 -0.411600 -25.419100 -0.204600 0.750300 11.719900 2.838200 -4.284100 44.585999 23.536200 -5.456200 -0.000000 0.000000 70.971901 -7.059500 11.365000 40.672001 7.732200 8.935600 -11.212100 -8.952800 -4.582900 -0.141200 -2.357100 -3.008000 3.700900 -8.088600 0.472700 1.756600 9.271900 -0.123000 -0.958000 8.578900 -0.084500 1.050900 4.113400 -0.158700 -0.934000 20.143400 -0.351300 -1.134400 10.874700 -0.044600 -0.313400 13.767900 -0.835800 -6.491100 17.558201 0.020000 -0.659500 8.141900 0.030200 1.695200 12.911800 -0.861200 -10.616000 22.303200 -0.198400 -0.205400 -4.246200 -0.130200 2.246600 -26.683300 0.842400 -5.397200 47.454498 5.430000 1.212700 -27.633801 1.179300 1.381000 -2.938100 -0.000000 -0.000000 -31.466000 0.482100 -9.573700 107.257797 -6.246800 -2.285900 8.213500 -10.194600 -0.051600 -9.615400 0.000000 0.000000 
0.972387 0.700097 -0.047150 81.427399 7.302000 0.638100 8.587100 -6.025400 1.773000 3.066100 -2.330900 0.373800 3.085000 -2.304700 0.396400 -2.013300 -10.501600 -0.090800 -0.000000 0.000000 -0.000000 -10.317700 -50.589699 10.332600 -16.664600 8.151000 -25.915800 -28.656799 20.384501 1.445800 -0.000000 0.000000 -42.449001 -5.879000 4.975700 32.580898 -12.226000 5.709200 -3.367600 8.562200 -7.713600 15.249300 3.241800 -2.359200 8.629300 -42.983501 -2.005100 -5.691700 -27.841000 -0.385000 0.655100 -14.874900 -0.018400 0.231900 -20.476000 -0.587500 -10.429100 -13.605200 -0.164300 0.746800 -9.293800 -0.018000 -0.226600 -46.821400 -2.184700 2.514100 -35.802399 0.162900 0.277700 -27.976500 0.325300 -0.027400 -60.479500 -2.759000 -0.244400 -55.402199 -0.199400 -0.420200 -26.861300 -0.214200 0.742000 12.043800 2.485900 -7.097600 47.113201 26.531500 -11.566800 0.000000 0.000000 66.560402 -3.926000 10.027400 43.257801 5.910100 5.255700 -14.482100 -6.522600 -2.797600 2.062400 -3.464400 -2.901800 3.319500 -4.307100 0.265600 2.317600 9.649600 -0.129300 -0.964500 8.957800 -0.085600 1.043600 9.618300 -0.477000 -0.612800 21.130100 -0.372900 -1.146100 11.862100 -0.050000 -0.330700 17.838900 -1.066400 -6.233900 19.084600 0.017000 -0.687200 9.660400 0.040600 1.666200 16.966499 -1.129000 -10.205400 25.458900 -0.238000 -0.252300 -1.125200 -0.154000 2.187100 -15.399600 1.598700 -6.817900 39.239101 4.772900 1.621900 -31.473700 1.812000 2.481200 -4.479300 0.000000 -0.000000 -44.076099 1.896800 -9.039600 109.487099 -4.164500 -1.021500 1.623900 -7.384300 -0.785400 -6.558500 0.000000 -0.000000 
1.062767 0.709928 -0.043654 78.707703 7.647600 -0.649900 8.288900 -7.494600 2.883300 2.978400 -3.050700 0.740200 2.992100 -3.033300 0.760300 -1.375900 -9.471000 -0.391300 -0.000000 0.000000 -0.000000 -11.406900 -46.963501 8.558500 -17.823299 8.828100 -27.703400 -27.045300 17.523100 -2.689100 0.000000 -0.000000 -51.929401 -6.087100 6.909500 32.585201 -12.198700 5.757300 -3.257100 8.663300 -7.687700 15.241900 4.292500 -2.449300 9.370900 -42.427799 -1.960100 -7.720100 -27.281799 -0.377500 0.660300 -14.253100 -0.017700 0.233800 -20.641001 -0.829800 -12.426000 -14.099500 -0.170700 0.744500 -9.835300 -0.017800 -0.227400 -45.447498 -2.075200 1.412500 -35.817501 0.163000 0.277700 -27.974300 0.325200 -0.027400 -57.847401 -2.476200 -2.443700 -55.687698 -0.199700 -0.421800 -27.121500 -0.215900 0.740400 12.780600 2.296200 -8.556600 47.531898 28.772900 -19.412701 -0.000000 0.000000 63.993401 -0.481500 6.242400 45.374901 1.969200 0.778000 -20.007200 -2.333200 -0.647200 4.318100 -4.574900 -2.645000 1.578700 -0.027400 0.023600 2.647200 10.621100 -0.145800 -0.980900 9.926100 -0.088600 1.025200 14.790400 -0.784600 -0.568400 23.165800 -0.417900 -1.169300 13.896300 -0.062100 -0.366000 22.313101 -1.331700 -6.154400 22.367100 0.007900 -0.746400 12.933300 0.060500 1.602700 22.018900 -1.616100 -10.584000 31.288099 -0.317500 -0.332900 4.626300 -0.206200 2.081300 9.400100 3.175100 -6.934400 4.076300 1.889500 1.479400 -20.828100 2.348500 4.007600 -3.490100 -0.000000 -0.000000 -52.581299 2.257100 -4.598900 102.943001 -1.812400 -0.631500 -4.357500 -7.772700 2.326400 -3.810400 0.000000 0.000000 
1.156635 0.721809 -0.038409 75.253304 8.147600 -2.986600 7.631000 -9.789400 4.956300 2.692200 -4.014100 1.296000 2.692300 -4.007300 1.311500 -0.460100 -8.002900 -0.546300 -0.000000 0.000000 -0.000000 -12.229700 -41.317902 6.698700 -18.285601 9.004600 -27.886900 -26.503201 14.528100 -3.480600 -0.000000 0.000000 -65.617203 -5.139900 6.861300 32.710800 -12.225700 5.709600 -3.366500 9.070100 -7.687200 15.162800 5.760900 -2.463000 10.267900 -41.008499 -1.873200 -10.421300 -27.221399 -0.376700 0.660900 -14.160500 -0.017600 0.234100 -19.466200 -0.972200 -15.174900 -14.560800 -0.176700 0.742400 -10.428300 -0.017600 -0.228400 -42.440399 -1.883300 0.010800 -36.508999 0.166400 0.277500 -28.647200 0.332000 -0.026200 -54.532600 -2.299700 -5.646000 -56.421799 -0.200600 -0.426100 -27.811600 -0.220400 0.736300 13.362400 2.340500 -8.219900 45.529301 29.355801 -27.332300 -0.000000 0.000000 60.720501 3.128700 0.277500 46.240002 -4.022000 -3.790800 -27.063801 2.822000 1.202200 5.864700 -5.237200 -2.313100 -0.975400 3.788900 -0.160400 2.456100 11.911300 -0.168100 -1.002200 11.207400 -0.093200 1.000900 18.417200 -1.004100 -0.698400 25.664301 -0.474300 -1.195400 16.390800 -0.078600 -0.408700 25.903200 -1.548800 -6.174700 26.597500 -0.008800 -0.821800 17.154400 0.080700 1.519400 26.448400 -2.102000 -11.422900 38.425400 -0.425300 -0.420000 11.663800 -0.284200 1.959900 14.699300 7.261200 -6.025200 4.809400 1.410800 1.075700 -8.781200 2.760500 0.896300 -10.770700 -0.000000 -0.000000 -56.778900 1.267300 1.943900 89.431801 -0.044900 -0.824900 -8.597800 -11.298500 6.280800 -2.354500 0.000000 -0.000000 
